<svg width="21" height="24" viewBox="0 0 21 24" fill="none" xmlns="http://www.w3.org/2000/svg">
<path d="M1 5.17578L3.08 5.5316L4.04301 16.8715C4.12001 17.7976 4.90301 18.5082 5.84301 18.5053H16.752C17.649 18.5072 18.41 17.8549 18.537 16.9772L19.486 10.4953C19.592 9.77083 19.083 9.09872 18.351 8.99395C18.287 8.98505 3.414 8.98011 3.414 8.98011" stroke="#363853" stroke-width="1.5" stroke-linecap="round" stroke-linejoin="round"/>
<path d="M12.375 12.6334H15.1479" stroke="#363853" stroke-width="1.5" stroke-linecap="round" stroke-linejoin="round"/>
<path fill-rule="evenodd" clip-rule="evenodd" d="M5.4043 21.9316C5.70527 21.9316 5.94824 22.1729 5.94824 22.4696C5.94824 22.7673 5.70527 23.0085 5.4043 23.0085C5.10333 23.0085 4.86035 22.7673 4.86035 22.4696C4.86035 22.1729 5.10333 21.9316 5.4043 21.9316Z" stroke="#363853" stroke-width="1.5" stroke-linecap="round" stroke-linejoin="round"/>
<path fill-rule="evenodd" clip-rule="evenodd" d="M16.6846 21.9316C16.9856 21.9316 17.2296 22.1729 17.2296 22.4696C17.2296 22.7673 16.9856 23.0085 16.6846 23.0085C16.3836 23.0085 16.1406 22.7673 16.1406 22.4696C16.1406 22.1729 16.3836 21.9316 16.6846 21.9316Z" stroke="#363853" stroke-width="1.5" stroke-linecap="round" stroke-linejoin="round"/>
</svg>
